<?xml version="1.0" encoding="UTF-8" standalone="no"?>
<svg
   xmlns:dc="http://purl.org/dc/elements/1.1/"
   xmlns:cc="http://creativecommons.org/ns#"
   xmlns:rdf="http://www.w3.org/1999/02/22-rdf-syntax-ns#"
   xmlns:svg="http://www.w3.org/2000/svg"
   xmlns="http://www.w3.org/2000/svg"
   xmlns:sodipodi="http://sodipodi.sourceforge.net/DTD/sodipodi-0.dtd"
   xmlns:inkscape="http://www.inkscape.org/namespaces/inkscape"
   version="1.1"
   id="svg2"
   xml:space="preserve"
   width="1051.3639"
   height="572.12885"
   viewBox="0 0 1051.3639 572.12882"
   sodipodi:docname="HSY.svg"
   inkscape:version="1.0.2-2 (e86c870879, 2021-01-15)"><metadata
     id="metadata8"><rdf:RDF><cc:Work
         rdf:about=""><dc:format>image/svg+xml</dc:format><dc:type
           rdf:resource="http://purl.org/dc/dcmitype/StillImage" /><dc:title></dc:title></cc:Work></rdf:RDF></metadata><defs
     id="defs6"><clipPath
       clipPathUnits="userSpaceOnUse"
       id="clipPath22"><path
         d="M 0,850.394 H 1133.858 V 0 H 0 Z"
         id="path20" /></clipPath></defs><sodipodi:namedview
     pagecolor="#ffffff"
     bordercolor="#666666"
     borderopacity="1"
     objecttolerance="10"
     gridtolerance="10"
     guidetolerance="10"
     inkscape:pageopacity="0"
     inkscape:pageshadow="2"
     inkscape:window-width="2560"
     inkscape:window-height="1377"
     id="namedview4"
     showgrid="false"
     inkscape:zoom="0.68923852"
     inkscape:cx="508.98914"
     inkscape:cy="286.80654"
     inkscape:window-x="1072"
     inkscape:window-y="43"
     inkscape:window-maximized="1"
     inkscape:current-layer="g10" /><g
     id="g10"
     inkscape:groupmode="layer"
     inkscape:label="HSY"
     transform="matrix(1.3333333,0,0,-1.3333333,-246.91754,853.73592)"><g
       id="g12"
       transform="translate(734.502,256.2609)"><path
         d="M 0,0 V 54.188 H -47.629 V 0 H -71.92 v 128.43 h 24.291 V 75.59 H 0 v 52.84 H 24.295 V 0 Z"
         style="fill:#00757f;fill-opacity:1;fill-rule:nonzero;stroke:none"
         id="path14" /></g><g
       id="g16"><g
         id="g18"
         clip-path="url(#clipPath22)"><g
           id="g24"
           transform="translate(813.9297,254.339)"><path
             d="m 0,0 c -14.656,0 -31.629,3.652 -40.105,7.711 l 4.24,19.09 c 11.951,-3.668 23.525,-5.981 36.25,-5.981 17.547,0 20.439,3.664 20.439,16.008 0,14.266 -0.387,15.422 -23.525,20.438 -31.045,6.937 -35.285,12.918 -35.285,40.113 0,23.324 10.603,34.894 43.191,34.894 11.184,0 24.682,-1.351 37.408,-4.238 L 39.91,107.598 c -10.601,2.304 -23.137,3.843 -34.32,3.843 -16.391,0 -19.283,-3.464 -19.283,-14.648 0,-14.66 0.382,-15.043 22.564,-20.438 C 43.383,68.07 45.117,62.469 45.117,36.828 45.117,12.535 37.986,0 0,0"
             style="fill:#00757f;fill-opacity:1;fill-rule:nonzero;stroke:none"
             id="path26" /></g><g
           id="g28"
           transform="translate(947.8711,384.6906)"><path
             d="m 0,0 h 25.84 l -41.461,-91.207 v -37.223 h -24.297 v 37.223 L -81.371,0 h 25.834 l 27.769,-64.801 z"
             style="fill:#00757f;fill-opacity:1;fill-rule:nonzero;stroke:none"
             id="path30" /></g><g
           id="g32"
           transform="translate(413.8735,525.8029)"><path
             d="M 0,0 C -2.685,3.383 -7.533,5.125 -11.884,4.613 -21.908,3.434 -32.467,-7.82 -30.816,-25.172 c 0.626,-6.594 1.56,-10.889 2.677,-14.299 0.304,-0.927 1.217,-0.822 1.438,0.174 1.986,8.943 8.382,13.945 15.621,16.615 6.61,2.44 13.271,5.762 13.774,13.828 C 2.895,-5.666 1.978,-2.496 0,0"
             style="fill:#00757f;fill-opacity:1;fill-rule:nonzero;stroke:none"
             id="path34" /></g><g
           id="g36"
           transform="translate(416.4243,350.8751)"><path
             d="M 0,0 C -0.625,6.588 -1.564,10.889 -2.676,14.301 -2.98,15.223 -3.893,15.121 -4.115,14.127 -6.1,5.184 -12.497,0.182 -19.735,-2.49 c -6.609,-2.444 -13.275,-5.76 -13.779,-13.826 -0.195,-3.188 0.721,-6.364 2.698,-8.854 2.686,-3.391 7.535,-5.133 11.884,-4.621 C -8.907,-28.605 1.651,-17.357 0,0"
             style="fill:#00757f;fill-opacity:1;fill-rule:nonzero;stroke:none"
             id="path38" /></g><g
           id="g40"
           transform="translate(368.7187,513.1427)"><path
             d="m 0,0 c -1.421,2.861 -3.801,5.15 -6.761,6.318 -4.019,1.592 -9.094,0.676 -12.601,-1.945 -8.091,-6.035 -11.61,-21.055 -1.503,-35.26 3.84,-5.396 6.796,-8.644 9.468,-11.045 0.725,-0.646 1.464,-0.101 1.155,0.871 -2.745,8.735 0.287,16.268 5.224,22.198 C -0.517,-13.445 3.593,-7.232 0,0"
             style="fill:#00757f;fill-opacity:1;fill-rule:nonzero;stroke:none"
             id="path42" /></g><g
           id="g44"
           transform="translate(451.6279,369.2462)"><path
             d="m 0,0 c -3.84,5.395 -6.799,8.65 -9.467,11.045 -0.726,0.652 -1.465,0.105 -1.16,-0.865 2.75,-8.743 -0.287,-16.268 -5.218,-22.203 -4.502,-5.42 -8.613,-11.625 -5.019,-18.86 1.42,-2.861 3.802,-5.154 6.76,-6.318 4.02,-1.596 9.09,-0.68 12.602,1.939 C 6.588,-29.225 10.109,-14.205 0,0"
             style="fill:#00757f;fill-opacity:1;fill-rule:nonzero;stroke:none"
             id="path46" /></g><g
           id="g48"
           transform="translate(340.8398,445.2423)"><path
             d="m 0,0 c -6.748,6.193 -7.882,14.232 -6.578,21.838 1.19,6.947 1.651,14.371 -5.084,18.84 -2.659,1.771 -5.866,2.564 -9.012,2.097 -4.275,-0.634 -8.213,-3.962 -9.942,-7.988 -3.988,-9.267 0.473,-24.041 16.324,-31.285 6.028,-2.756 10.217,-4.094 13.727,-4.83 C 0.386,-1.529 0.752,-0.686 0,0"
             style="fill:#00757f;fill-opacity:1;fill-rule:nonzero;stroke:none"
             id="path50" /></g><g
           id="g52"
           transform="translate(472.9287,402.7638)"><path
             d="m 0,0 c -6.021,2.748 -10.211,4.086 -13.723,4.828 -0.955,0.203 -1.32,-0.641 -0.568,-1.332 6.752,-6.189 7.887,-14.226 6.578,-21.838 -1.185,-6.941 -1.641,-14.373 5.088,-18.842 2.66,-1.765 5.867,-2.556 9.012,-2.089 4.277,0.628 8.213,3.962 9.943,7.98 C 20.317,-22.018 15.855,-7.252 0,0"
             style="fill:#00757f;fill-opacity:1;fill-rule:nonzero;stroke:none"
             id="path54" /></g><g
           id="g56"
           transform="translate(338.9849,413.1857)"><path
             d="m 0,0 c -8.938,1.984 -13.939,8.381 -16.611,15.615 -2.443,6.61 -5.762,13.276 -13.827,13.781 -3.19,0.198 -6.361,-0.718 -8.852,-2.697 -3.389,-2.681 -5.13,-7.537 -4.619,-11.883 1.182,-10.027 12.432,-20.584 29.784,-18.931 6.594,0.623 10.892,1.562 14.303,2.676 C 1.103,-1.137 0.999,-0.225 0,0"
             style="fill:#00757f;fill-opacity:1;fill-rule:nonzero;stroke:none"
             id="path58" /></g><g
           id="g60"
           transform="translate(504.4053,423.506)"><path
             d="m 0,0 c -1.182,10.021 -12.432,20.578 -29.785,18.932 -6.592,-0.631 -10.889,-1.565 -14.301,-2.682 -0.926,-0.305 -0.822,-1.215 0.174,-1.434 8.943,-1.99 13.943,-8.38 16.615,-15.621 2.443,-6.609 5.763,-13.277 13.828,-13.777 3.184,-0.201 6.36,0.715 8.85,2.693 C -1.229,-9.203 0.514,-4.352 0,0"
             style="fill:#00757f;fill-opacity:1;fill-rule:nonzero;stroke:none"
             id="path62" /></g><g
           id="g64"
           transform="translate(353.4111,384.4904)"><path
             d="m 0,0 c -8.738,-2.75 -16.264,0.285 -22.2,5.215 -5.419,4.51 -11.623,8.617 -18.863,5.025 -2.858,-1.427 -5.149,-3.804 -6.316,-6.761 -1.591,-4.02 -0.675,-9.094 1.946,-12.602 6.031,-8.09 21.056,-11.607 35.256,-1.502 5.396,3.84 8.651,6.797 11.046,9.467 C 1.521,-0.434 0.973,0.303 0,0"
             style="fill:#00757f;fill-opacity:1;fill-rule:nonzero;stroke:none"
             id="path66" /></g><g
           id="g68"
           transform="translate(491.5088,476.1349)"><path
             d="m 0,0 c -6.035,8.094 -21.061,11.613 -35.262,1.506 -5.396,-3.838 -8.65,-6.801 -11.049,-9.471 -0.648,-0.724 -0.099,-1.461 0.87,-1.158 8.742,2.754 16.267,-0.287 22.203,-5.217 5.42,-4.508 11.629,-8.617 18.863,-5.019 2.859,1.416 5.148,3.8 6.317,6.757 C 3.533,-8.578 2.615,-3.508 0,0"
             style="fill:#00757f;fill-opacity:1;fill-rule:nonzero;stroke:none"
             id="path70" /></g><g
           id="g72"
           transform="translate(380.2476,366.8517)"><path
             d="m 0,0 c -6.189,-6.746 -14.227,-7.881 -21.831,-6.578 -6.947,1.191 -14.378,1.648 -18.85,-5.08 -1.763,-2.664 -2.555,-5.875 -2.09,-9.018 0.63,-4.277 3.963,-8.217 7.986,-9.943 9.269,-3.985 24.043,0.473 31.285,16.33 2.756,6.019 4.094,10.213 4.833,13.727 C 1.533,0.387 0.694,0.752 0,0"
             style="fill:#00757f;fill-opacity:1;fill-rule:nonzero;stroke:none"
             id="path74" /></g><g
           id="g76"
           transform="translate(462.0049,505.3243)"><path
             d="m 0,0 c -0.629,4.277 -3.963,8.213 -7.982,9.943 -9.272,3.993 -24.041,-0.47 -31.293,-16.328 -2.75,-6.019 -4.09,-10.213 -4.828,-13.726 -0.2,-0.951 0.639,-1.317 1.33,-0.563 6.191,6.75 14.23,7.887 21.839,6.576 6.944,-1.185 14.373,-1.646 18.84,5.088 C -0.326,-6.352 0.469,-3.143 0,0"
             style="fill:#00757f;fill-opacity:1;fill-rule:nonzero;stroke:none"
             id="path78" /></g><g
           id="g80"
           transform="translate(413.8735,580.6974)"><path
             d="m 0,0 c -2.685,3.389 -7.533,5.131 -11.884,4.619 -10.024,-1.185 -20.583,-12.433 -18.932,-29.785 0.626,-6.594 1.565,-10.887 2.677,-14.299 0.304,-0.928 1.217,-0.822 1.438,0.174 1.986,8.937 8.382,13.939 15.621,16.615 6.61,2.44 13.275,5.762 13.778,13.828 C 2.895,-5.666 1.978,-2.49 0,0"
             style="fill:#ffffff;fill-opacity:1;fill-rule:nonzero;stroke:none"
             id="path82" /></g><g
           id="g84"
           transform="translate(416.4243,295.9747)"><path
             d="M 0,0 C -0.625,6.594 -1.56,10.889 -2.676,14.301 -2.98,15.223 -3.893,15.121 -4.115,14.127 -6.1,5.189 -12.497,0.18 -19.735,-2.49 c -6.609,-2.44 -13.27,-5.756 -13.775,-13.826 -0.199,-3.188 0.717,-6.358 2.694,-8.854 2.686,-3.385 7.535,-5.133 11.884,-4.615 C -8.907,-28.6 1.651,-17.352 0,0"
             style="fill:#ffffff;fill-opacity:1;fill-rule:nonzero;stroke:none"
             id="path86" /></g><g
           id="g88"
           transform="translate(559.3018,423.506)"><path
             d="m 0,0 c -1.181,10.021 -12.432,20.584 -29.781,18.932 -6.596,-0.625 -10.89,-1.565 -14.301,-2.676 -0.924,-0.305 -0.82,-1.221 0.175,-1.44 8.937,-1.984 13.944,-8.38 16.616,-15.621 2.437,-6.609 5.757,-13.271 13.826,-13.777 3.186,-0.197 6.358,0.721 8.852,2.699 C -1.229,-9.197 0.518,-4.352 0,0"
             style="fill:#ffffff;fill-opacity:1;fill-rule:nonzero;stroke:none"
             id="path90" /></g><g
           id="g92"
           transform="translate(284.0884,413.1857)"><path
             d="m 0,0 c -8.938,1.984 -13.944,8.381 -16.617,15.619 -2.437,6.611 -5.758,13.272 -13.826,13.777 -3.184,0.198 -6.356,-0.718 -8.85,-2.697 -3.386,-2.681 -5.133,-7.533 -4.615,-11.883 1.181,-10.021 12.43,-20.584 29.781,-18.931 6.596,0.623 10.89,1.562 14.3,2.676 C 1.099,-1.137 0.995,-0.221 0,0"
             style="fill:#ffffff;fill-opacity:1;fill-rule:nonzero;stroke:none"
             id="path94" /></g><g
           id="g96"
           transform="translate(413.8735,580.6974)"><path
             d="m 0,0 c -2.685,3.389 -7.533,5.131 -11.884,4.619 -10.024,-1.185 -20.583,-12.433 -18.932,-29.785 0.626,-6.594 1.565,-10.887 2.677,-14.299 0.304,-0.928 1.217,-0.822 1.438,0.174 1.986,8.937 8.382,13.939 15.621,16.615 6.61,2.44 13.275,5.762 13.778,13.828 C 2.895,-5.666 1.978,-2.49 0,0"
             style="fill:#0dafb6;fill-opacity:1;fill-rule:nonzero;stroke:none"
             id="path98" /></g><g
           id="g100"
           transform="translate(416.4243,295.9747)"><path
             d="M 0,0 C -0.625,6.594 -1.56,10.889 -2.676,14.301 -2.98,15.223 -3.893,15.121 -4.115,14.127 -6.1,5.189 -12.497,0.18 -19.735,-2.49 c -6.609,-2.44 -13.27,-5.756 -13.775,-13.826 -0.199,-3.188 0.717,-6.358 2.694,-8.854 2.686,-3.385 7.535,-5.133 11.884,-4.615 C -8.907,-28.6 1.651,-17.352 0,0"
             style="fill:#0dafb6;fill-opacity:1;fill-rule:nonzero;stroke:none"
             id="path102" /></g><g
           id="g104"
           transform="translate(559.3018,423.506)"><path
             d="m 0,0 c -1.181,10.021 -12.432,20.584 -29.781,18.932 -6.596,-0.625 -10.89,-1.565 -14.301,-2.676 -0.924,-0.305 -0.82,-1.221 0.175,-1.44 8.937,-1.984 13.944,-8.38 16.616,-15.621 2.437,-6.609 5.757,-13.271 13.826,-13.777 3.186,-0.197 6.358,0.721 8.852,2.699 C -1.229,-9.197 0.518,-4.352 0,0"
             style="fill:#0dafb6;fill-opacity:1;fill-rule:nonzero;stroke:none"
             id="path106" /></g><g
           id="g108"
           transform="translate(284.0884,413.1857)"><path
             d="m 0,0 c -8.938,1.984 -13.944,8.381 -16.617,15.619 -2.437,6.611 -5.758,13.272 -13.826,13.777 -3.184,0.198 -6.356,-0.718 -8.85,-2.697 -3.386,-2.681 -5.133,-7.533 -4.615,-11.883 1.181,-10.021 12.43,-20.584 29.781,-18.931 6.596,0.623 10.89,1.562 14.3,2.676 C 1.099,-1.137 0.995,-0.221 0,0"
             style="fill:#0dafb6;fill-opacity:1;fill-rule:nonzero;stroke:none"
             id="path110" /></g><g
           id="g112"
           transform="translate(552.1895,472.9259)"><path
             d="m 0,0 c -4.224,9.168 -18.185,15.732 -34.18,8.797 -6.073,-2.631 -9.872,-4.852 -12.769,-6.965 -0.787,-0.574 -0.405,-1.412 0.608,-1.316 9.115,0.877 15.852,-3.659 20.631,-9.719 4.361,-5.531 9.576,-10.842 17.406,-8.83 3.089,0.799 5.826,2.648 7.583,5.301 C 1.673,-9.135 1.834,-3.98 0,0"
             style="fill:#0dafb6;fill-opacity:1;fill-rule:nonzero;stroke:none"
             id="path114" /></g><g
           id="g116"
           transform="translate(293.6343,378.0587)"><path
             d="m 0,0 c -9.116,-0.871 -15.851,3.666 -20.63,9.725 -4.364,5.531 -9.577,10.843 -17.407,8.83 -3.09,-0.797 -5.824,-2.647 -7.587,-5.301 -2.391,-3.596 -2.551,-8.752 -0.717,-12.731 4.223,-9.168 18.184,-15.734 34.174,-8.796 6.084,2.63 9.876,4.845 12.775,6.959 C 1.394,-0.736 1.012,0.102 0,0"
             style="fill:#0dafb6;fill-opacity:1;fill-rule:nonzero;stroke:none"
             id="path118" /></g><g
           id="g120"
           transform="translate(530.1514,517.7247)"><path
             d="m 0,0 c -6.85,7.414 -22.157,9.342 -35.223,-2.191 -4.966,-4.385 -7.89,-7.668 -9.999,-10.575 -0.569,-0.787 0.052,-1.461 0.988,-1.062 8.398,3.654 16.207,1.416 22.625,-2.867 5.857,-3.912 12.463,-7.352 19.283,-3.018 2.693,1.715 4.722,4.317 5.576,7.381 C 4.414,-8.168 2.972,-3.221 0,0"
             style="fill:#0dafb6;fill-opacity:1;fill-rule:nonzero;stroke:none"
             id="path122" /></g><g
           id="g124"
           transform="translate(313.5649,347.6036)"><path
             d="m 0,0 c -8.399,-3.646 -16.207,-1.41 -22.625,2.873 -5.856,3.912 -12.461,7.357 -19.284,3.02 -2.694,-1.709 -4.718,-4.319 -5.574,-7.381 -1.165,-4.16 0.274,-9.112 3.25,-12.328 6.848,-7.42 22.155,-9.348 35.221,2.187 4.968,4.385 7.891,7.662 9.994,10.568 C 1.556,-0.27 0.935,0.406 0,0"
             style="fill:#0dafb6;fill-opacity:1;fill-rule:nonzero;stroke:none"
             id="path126" /></g><g
           id="g128"
           transform="translate(495.3506,553.5197)"><path
             d="m 0,0 c -8.809,4.941 -23.961,2.041 -32.824,-12.969 -3.371,-5.699 -5.135,-9.728 -6.24,-13.14 -0.299,-0.928 0.501,-1.377 1.265,-0.703 6.86,6.064 14.977,6.351 22.404,4.259 6.779,-1.91 14.122,-3.14 19.27,3.086 2.033,2.463 3.159,5.572 3.023,8.748 C 6.718,-6.402 3.818,-2.143 0,0"
             style="fill:#0dafb6;fill-opacity:1;fill-rule:nonzero;stroke:none"
             id="path130" /></g><g
           id="g132"
           transform="translate(341.9302,324.8009)"><path
             d="m 0,0 c -6.86,-6.066 -14.977,-6.354 -22.402,-4.262 -6.78,1.912 -14.123,3.149 -19.276,-3.086 -2.03,-2.463 -3.155,-5.564 -3.02,-8.746 0.182,-4.316 3.08,-8.578 6.904,-10.718 8.804,-4.936 23.96,-2.042 32.819,12.966 3.371,5.7 5.137,9.725 6.24,13.137 C 1.565,0.219 0.766,0.674 0,0"
             style="fill:#0dafb6;fill-opacity:1;fill-rule:nonzero;stroke:none"
             id="path134" /></g><g
           id="g136"
           transform="translate(461.0615,568.7462)"><path
             d="m 0,0 c -1.508,4.053 -5.578,7.213 -9.875,8.066 -9.898,1.973 -23.417,-5.462 -27.205,-22.478 -1.443,-6.465 -1.881,-10.838 -1.873,-14.424 0,-0.976 0.899,-1.158 1.421,-0.281 4.648,7.887 12.279,10.67 19.987,10.972 7.039,0.282 14.404,1.383 17.377,8.899 C 1.006,-6.277 1.113,-2.979 0,0"
             style="fill:#0dafb6;fill-opacity:1;fill-rule:nonzero;stroke:none"
             id="path138" /></g><g
           id="g140"
           transform="translate(375.9585,311.8771)"><path
             d="m 0,0 c -4.65,-7.887 -12.285,-10.674 -19.993,-10.973 -7.038,-0.281 -14.403,-1.377 -17.376,-8.896 -1.173,-2.963 -1.277,-6.268 -0.17,-9.248 1.508,-4.047 5.58,-7.205 9.876,-8.061 9.899,-1.972 23.422,5.459 27.206,22.473 C 0.991,-8.24 1.425,-3.867 1.421,-0.281 1.417,0.691 0.517,0.877 0,0"
             style="fill:#0dafb6;fill-opacity:1;fill-rule:nonzero;stroke:none"
             id="path142" /></g><g
           id="g144"
           transform="translate(370.6001,569.8986)"><path
             d="m 0,0 c -0.795,3.092 -2.646,5.83 -5.296,7.584 -3.603,2.395 -8.752,2.551 -12.732,0.719 -9.168,-4.221 -15.733,-18.184 -8.8,-34.176 2.634,-6.076 4.85,-9.877 6.966,-12.777 0.573,-0.782 1.408,-0.399 1.313,0.613 -0.874,9.117 3.663,15.851 9.72,20.629 C -3.298,-13.047 2.017,-7.824 0,0"
             style="fill:#0dafb6;fill-opacity:1;fill-rule:nonzero;stroke:none"
             id="path146" /></g><g
           id="g148"
           transform="translate(455.71,307.4825)"><path
             d="M 0,0 C -2.631,6.08 -4.846,9.869 -6.957,12.77 -7.535,13.557 -8.373,13.174 -8.273,12.162 -7.4,3.051 -11.938,-3.688 -18,-8.467 c -5.53,-4.361 -10.839,-9.578 -8.828,-17.408 0.795,-3.086 2.652,-5.822 5.302,-7.582 3.596,-2.389 8.747,-2.553 12.725,-0.719 C 0.369,-29.949 6.934,-15.986 0,0"
             style="fill:#0dafb6;fill-opacity:1;fill-rule:nonzero;stroke:none"
             id="path150" /></g><g
           id="g152"
           transform="translate(327.4829,553.84)"><path
             d="M 0,0 C -1.712,2.691 -4.318,4.721 -7.382,5.576 -11.544,6.74 -16.494,5.301 -19.71,2.32 c -7.417,-6.845 -9.347,-22.152 2.19,-35.22 4.385,-4.969 7.665,-7.891 10.572,-9.995 0.787,-0.568 1.465,0.051 1.06,0.985 -3.645,8.402 -1.411,16.205 2.872,22.625 C 0.895,-13.43 4.336,-6.818 0,0"
             style="fill:#0dafb6;fill-opacity:1;fill-rule:nonzero;stroke:none"
             id="path154" /></g><g
           id="g156"
           transform="translate(489.5195,330.5665)"><path
             d="m 0,0 c -4.38,4.969 -7.661,7.893 -10.563,9.994 -0.795,0.574 -1.475,-0.051 -1.065,-0.982 3.645,-8.399 1.412,-16.211 -2.877,-22.625 -3.91,-5.858 -7.348,-12.463 -3.016,-19.285 1.711,-2.694 4.32,-4.723 7.383,-5.571 4.162,-1.164 9.112,0.276 12.327,3.248 C 9.603,-28.375 11.536,-13.063 0,0"
             style="fill:#0dafb6;fill-opacity:1;fill-rule:nonzero;stroke:none"
             id="path158" /></g><g
           id="g160"
           transform="translate(298.7915,483.5665)"><path
             d="m 0,0 c -6.065,6.863 -6.353,14.973 -4.262,22.398 1.911,6.786 3.141,14.131 -3.09,19.276 -2.459,2.035 -5.566,3.158 -8.742,3.023 -4.32,-0.179 -8.582,-3.08 -10.719,-6.902 -4.941,-8.809 -2.048,-23.957 12.966,-32.82 5.705,-3.373 9.728,-5.139 13.143,-6.246 C 0.218,-1.562 0.673,-0.766 0,0"
             style="fill:#0dafb6;fill-opacity:1;fill-rule:nonzero;stroke:none"
             id="path162" /></g><g
           id="g164"
           transform="translate(514.5381,362.9669)"><path
             d="m 0,0 c -5.701,3.373 -9.72,5.137 -13.136,6.244 -0.928,0.299 -1.382,-0.506 -0.708,-1.269 6.067,-6.858 6.358,-14.975 4.26,-22.401 -1.909,-6.779 -3.143,-14.125 3.088,-19.273 2.459,-2.03 5.57,-3.155 8.748,-3.02 4.314,0.18 8.576,3.074 10.719,6.897 C 17.902,-24.014 15.009,-8.859 0,0"
             style="fill:#0dafb6;fill-opacity:1;fill-rule:nonzero;stroke:none"
             id="path166" /></g><g
           id="g168"
           transform="translate(285.8691,449.5411)"><path
             d="m 0,0 c -7.891,4.648 -10.672,12.283 -10.975,19.988 -0.278,7.039 -1.383,14.408 -8.896,17.375 -2.967,1.176 -6.27,1.282 -9.25,0.174 -4.05,-1.506 -7.209,-5.58 -8.061,-9.875 -1.977,-9.904 5.458,-23.418 22.473,-27.211 6.467,-1.439 10.842,-1.879 14.431,-1.873 C 0.691,-1.416 0.874,-0.516 0,0"
             style="fill:#0dafb6;fill-opacity:1;fill-rule:nonzero;stroke:none"
             id="path170" /></g><g
           id="g172"
           transform="translate(528.3252,401.5157)"><path
             d="m 0,0 c -6.465,1.445 -10.837,1.883 -14.422,1.877 -0.976,-0.006 -1.159,-0.904 -0.282,-1.422 7.882,-4.648 10.673,-12.281 10.972,-19.994 0.279,-7.037 1.377,-14.4 8.894,-17.375 2.963,-1.168 6.27,-1.275 9.246,-0.168 4.051,1.506 7.209,5.576 8.065,9.877 C 24.446,-17.307 17.008,-3.789 0,0"
             style="fill:#0dafb6;fill-opacity:1;fill-rule:nonzero;stroke:none"
             id="path174" /></g><g
           id="g176"
           transform="translate(413.8735,635.5978)"><path
             d="m 0,0 c -2.685,3.383 -7.533,5.131 -11.884,4.615 -10.024,-1.181 -20.583,-12.433 -18.932,-29.787 0.626,-6.594 1.565,-10.887 2.677,-14.299 0.304,-0.922 1.217,-0.82 1.438,0.174 1.986,8.943 8.382,13.945 15.621,16.615 6.61,2.44 13.275,5.762 13.778,13.828 C 2.895,-5.666 1.978,-2.496 0,0"
             style="fill:#66ccca;fill-opacity:1;fill-rule:nonzero;stroke:none"
             id="path178" /></g><g
           id="g180"
           transform="translate(416.4243,241.0743)"><path
             d="M 0,0 C -0.625,6.594 -1.56,10.895 -2.676,14.301 -2.98,15.229 -3.893,15.127 -4.115,14.127 -6.1,5.189 -12.497,0.186 -19.735,-2.49 c -6.609,-2.44 -13.27,-5.756 -13.775,-13.822 -0.199,-3.186 0.717,-6.362 2.694,-8.852 2.686,-3.391 7.535,-5.133 11.884,-4.615 C -8.907,-28.6 1.651,-17.352 0,0"
             style="fill:#66ccca;fill-opacity:1;fill-rule:nonzero;stroke:none"
             id="path182" /></g><g
           id="g184"
           transform="translate(371.4126,625.4454)"><path
             d="m 0,0 c -0.517,3.154 -2.116,6.043 -4.597,8.033 -3.372,2.703 -8.49,3.328 -12.613,1.856 -9.513,-3.385 -17.299,-16.701 -11.832,-33.25 2.081,-6.289 3.948,-10.27 5.796,-13.35 0.503,-0.832 1.365,-0.527 1.359,0.49 -0.052,9.162 5.072,15.463 11.533,19.678 C -4.453,-12.697 1.304,-7.977 0,0"
             style="fill:#66ccca;fill-opacity:1;fill-rule:nonzero;stroke:none"
             id="path186" /></g><g
           id="g188"
           transform="translate(457.1084,249.422)"><path
             d="m 0,0 c -2.076,6.289 -3.945,10.27 -5.791,13.344 -0.502,0.838 -1.369,0.535 -1.365,-0.489 0.056,-9.156 -5.067,-15.457 -11.528,-19.673 -5.901,-3.85 -11.657,-8.573 -10.355,-16.549 0.513,-3.147 2.117,-6.037 4.598,-8.026 3.371,-2.705 8.49,-3.328 12.613,-1.855 C -2.314,-29.865 5.475,-16.549 0,0"
             style="fill:#66ccca;fill-opacity:1;fill-rule:nonzero;stroke:none"
             id="path190" /></g><g
           id="g192"
           transform="translate(327.6782,614.131)"><path
             d="m 0,0 c -1.203,2.957 -3.406,5.418 -6.269,6.807 -3.89,1.888 -9.018,1.355 -12.71,-1 -8.521,-5.414 -13.149,-20.129 -4.132,-35.047 3.424,-5.666 6.13,-9.129 8.616,-11.721 0.677,-0.703 1.452,-0.213 1.221,0.775 -2.09,8.922 1.499,16.207 6.86,21.754 C -1.521,-13.367 3.046,-7.482 0,0"
             style="fill:#66ccca;fill-opacity:1;fill-rule:nonzero;stroke:none"
             id="path194" /></g><g
           id="g196"
           transform="translate(494.915,266.6173)"><path
             d="m 0,0 c -3.428,5.666 -6.131,9.129 -8.621,11.719 -0.673,0.703 -1.445,0.215 -1.217,-0.781 2.092,-8.915 -1.498,-16.2 -6.86,-21.749 -4.898,-5.07 -9.458,-10.949 -6.413,-18.435 1.205,-2.957 3.406,-5.42 6.269,-6.809 3.889,-1.883 9.017,-1.347 12.709,1.002 C 4.389,-29.641 9.021,-14.918 0,0"
             style="fill:#66ccca;fill-opacity:1;fill-rule:nonzero;stroke:none"
             id="path198" /></g><g
           id="g200"
           transform="translate(287.5596,593.3673)"><path
             d="m 0,0 c -1.834,2.613 -4.528,4.523 -7.63,5.238 -4.211,0.973 -9.09,-0.685 -12.167,-3.801 -7.099,-7.171 -8.342,-22.55 3.772,-35.085 4.602,-4.766 8.012,-7.538 11.011,-9.51 0.812,-0.535 1.46,0.111 1.012,1.027 -4.019,8.236 -2.142,16.127 1.852,22.733 C 1.495,-13.373 4.636,-6.617 0,0"
             style="fill:#66ccca;fill-opacity:1;fill-rule:nonzero;stroke:none"
             id="path202" /></g><g
           id="g204"
           transform="translate(527.9482,291.7872)"><path
             d="m 0,0 c -4.602,4.768 -8.014,7.543 -11.011,9.512 -0.813,0.533 -1.464,-0.119 -1.012,-1.035 4.018,-8.229 2.142,-16.127 -1.852,-22.731 -3.645,-6.031 -6.783,-12.777 -2.146,-19.398 1.829,-2.614 4.523,-4.526 7.621,-5.239 4.214,-0.972 9.095,0.692 12.171,3.805 C 10.871,-27.914 12.114,-12.535 0,0"
             style="fill:#66ccca;fill-opacity:1;fill-rule:nonzero;stroke:none"
             id="path206" /></g><g
           id="g208"
           transform="translate(258.5425,522.2325)"><path
             d="m 0,0 c -5.753,7.127 -5.679,15.244 -3.255,22.574 2.212,6.684 3.772,13.969 -2.224,19.387 -2.368,2.143 -5.419,3.406 -8.602,3.412 -4.321,0.012 -8.71,-2.693 -11.017,-6.414 -5.323,-8.578 -3.111,-23.844 11.49,-33.371 C -8.065,1.967 -4.119,0.023 -0.76,-1.23 0.152,-1.568 0.639,-0.793 0,0"
             style="fill:#66ccca;fill-opacity:1;fill-rule:nonzero;stroke:none"
             id="path210" /></g><g
           id="g212"
           transform="translate(554.5449,323.6818)"><path
             d="m 0,0 c -5.546,3.619 -9.485,5.57 -12.85,6.824 -0.912,0.336 -1.398,-0.439 -0.756,-1.236 5.75,-7.123 5.676,-15.24 3.255,-22.57 -2.212,-6.688 -3.772,-13.967 2.225,-19.391 2.364,-2.143 5.418,-3.402 8.6,-3.412 4.322,-0.012 8.711,2.697 11.013,6.418 C 16.815,-24.795 14.599,-9.521 0,0"
             style="fill:#66ccca;fill-opacity:1;fill-rule:nonzero;stroke:none"
             id="path214" /></g><g
           id="g216"
           transform="translate(240.6128,488.3888)"><path
             d="m 0,0 c -7.198,5.672 -8.932,13.598 -8.198,21.281 0.664,7.01 0.565,14.457 -6.483,18.408 -2.785,1.557 -6.044,2.108 -9.147,1.407 -4.217,-0.946 -7.893,-4.559 -9.314,-8.701 C -36.424,22.85 -30.867,8.453 -14.516,2.416 -8.302,0.123 -4.026,-0.895 -0.468,-1.371 0.498,-1.502 0.797,-0.629 0,0"
             style="fill:#66ccca;fill-opacity:1;fill-rule:nonzero;stroke:none"
             id="path218" /></g><g
           id="g220"
           transform="translate(573.3809,360.7013)"><path
             d="m 0,0 c -6.214,2.293 -10.489,3.316 -14.048,3.789 -0.965,0.129 -1.265,-0.742 -0.466,-1.371 7.197,-5.666 8.931,-13.598 8.201,-21.281 -0.666,-7.016 -0.566,-14.457 6.483,-18.41 2.779,-1.563 6.044,-2.114 9.142,-1.416 4.219,0.955 7.895,4.576 9.316,8.712 C 21.908,-20.432 16.351,-6.037 0,0"
             style="fill:#66ccca;fill-opacity:1;fill-rule:nonzero;stroke:none"
             id="path222" /></g><g
           id="g224"
           transform="translate(230.6636,451.3966)"><path
             d="m 0,0 c -8.28,3.93 -11.737,11.27 -12.731,18.926 -0.909,6.982 -2.664,14.22 -10.415,16.504 -3.063,0.898 -6.362,0.713 -9.234,-0.664 -3.898,-1.86 -6.679,-6.2 -7.139,-10.557 -1.078,-10.039 7.542,-22.832 24.829,-25.08 6.569,-0.85 10.964,-0.895 14.538,-0.563 0.97,0.084 1.069,1 0.152,1.434"
             style="fill:#66ccca;fill-opacity:1;fill-rule:nonzero;stroke:none"
             id="path226" /></g><g
           id="g228"
           transform="translate(583.5059,400.9825)"><path
             d="m 0,0 c -6.571,0.854 -10.968,0.893 -14.54,0.566 -0.969,-0.095 -1.068,-1.005 -0.148,-1.443 8.274,-3.924 11.733,-11.271 12.728,-18.922 0.911,-6.986 2.668,-14.221 10.42,-16.502 3.059,-0.906 6.361,-0.72 9.227,0.656 3.899,1.868 6.676,6.213 7.141,10.563 C 25.906,-15.049 17.284,-2.25 0,0"
             style="fill:#66ccca;fill-opacity:1;fill-rule:nonzero;stroke:none"
             id="path230" /></g><g
           id="g232"
           transform="translate(229.1948,413.1232)"><path
             d="m 0,0 c -8.947,1.99 -13.948,8.375 -16.62,15.615 -2.442,6.606 -5.765,13.272 -13.83,13.772 -3.186,0.197 -6.361,-0.719 -8.852,-2.698 -3.389,-2.687 -5.132,-7.539 -4.615,-11.882 1.186,-10.024 12.437,-20.58 29.792,-18.928 6.593,0.637 10.888,1.568 14.297,2.687 C 1.099,-1.135 0.994,-0.219 0,0"
             style="fill:#66ccca;fill-opacity:1;fill-rule:nonzero;stroke:none"
             id="path234" /></g><g
           id="g236"
           transform="translate(614.1953,423.5782)"><path
             d="m 0,0 c -1.182,10.027 -12.433,20.578 -29.786,18.926 -6.596,-0.629 -10.889,-1.569 -14.3,-2.688 -0.926,-0.302 -0.821,-1.213 0.177,-1.431 8.939,-1.985 13.944,-8.383 16.622,-15.616 2.44,-6.611 5.762,-13.271 13.826,-13.771 3.185,-0.203 6.36,0.713 8.851,2.691 C -1.222,-9.201 0.517,-4.346 0,0"
             style="fill:#66ccca;fill-opacity:1;fill-rule:nonzero;stroke:none"
             id="path238" /></g><g
           id="g240"
           transform="translate(236.2847,375.4845)"><path
             d="m 0,0 c -9.164,-0.057 -15.462,5.059 -19.682,11.523 -3.849,5.897 -8.572,11.653 -16.546,10.348 -3.15,-0.516 -6.041,-2.119 -8.031,-4.603 -2.705,-3.373 -3.323,-8.487 -1.85,-12.614 3.385,-9.506 16.703,-17.291 33.254,-11.814 6.287,2.084 10.265,3.951 13.341,5.801 C 1.322,-0.865 1.016,0.006 0,0"
             style="fill:#66ccca;fill-opacity:1;fill-rule:nonzero;stroke:none"
             id="path242" /></g><g
           id="g244"
           transform="translate(609.3018,471.3673)"><path
             d="m 0,0 c -3.385,9.506 -16.702,17.291 -33.252,11.816 -6.289,-2.08 -10.269,-3.951 -13.345,-5.8 -0.835,-0.5 -0.531,-1.368 0.492,-1.356 9.158,0.051 15.459,-5.064 19.678,-11.527 3.855,-5.897 8.573,-11.653 16.547,-10.344 3.151,0.512 6.044,2.113 8.029,4.592 C 0.852,-9.246 1.469,-4.125 0,0"
             style="fill:#66ccca;fill-opacity:1;fill-rule:nonzero;stroke:none"
             id="path246" /></g><g
           id="g248"
           transform="translate(251.5723,340.3654)"><path
             d="m 0,0 c -8.92,-2.098 -16.198,1.488 -21.752,6.857 -5.066,4.891 -10.95,9.45 -18.436,6.403 -2.955,-1.209 -5.414,-3.412 -6.801,-6.274 -1.89,-3.89 -1.355,-9.015 1.001,-12.709 5.416,-8.515 20.133,-13.142 35.047,-4.121 5.669,3.43 9.129,6.139 11.72,8.623 C 1.482,-0.547 0.991,0.23 0,0"
             style="fill:#66ccca;fill-opacity:1;fill-rule:nonzero;stroke:none"
             id="path250" /></g><g
           id="g252"
           transform="translate(593.8945,516.8654)"><path
             d="m 0,0 c -5.418,8.516 -20.136,13.141 -35.052,4.119 -5.666,-3.428 -9.131,-6.133 -11.72,-8.623 -0.699,-0.674 -0.212,-1.449 0.787,-1.213 8.912,2.09 16.194,-1.502 21.748,-6.857 5.071,-4.897 10.949,-9.455 18.436,-6.403 2.954,1.198 5.423,3.407 6.805,6.262 C 2.89,-8.82 2.352,-3.693 0,0"
             style="fill:#66ccca;fill-opacity:1;fill-rule:nonzero;stroke:none"
             id="path254" /></g><g
           id="g256"
           transform="translate(274.2939,309.5275)"><path
             d="m 0,0 c -8.229,-4.025 -16.125,-2.152 -22.734,1.844 -6.027,3.642 -12.78,6.779 -19.397,2.142 -2.611,-1.84 -4.521,-4.531 -5.236,-7.634 -0.974,-4.209 0.687,-9.088 3.807,-12.165 7.174,-7.097 22.551,-8.33 35.082,3.784 4.763,4.609 7.535,8.015 9.508,11.017 C 1.564,-0.201 0.912,0.449 0,0"
             style="fill:#66ccca;fill-opacity:1;fill-rule:nonzero;stroke:none"
             id="path258" /></g><g
           id="g260"
           transform="translate(568.7451,557.7911)"><path
             d="m 0,0 c -7.178,7.1 -22.556,8.336 -35.088,-3.783 -4.763,-4.604 -7.539,-8.016 -9.507,-11.018 -0.53,-0.814 0.116,-1.455 1.033,-1.012 8.226,4.026 16.125,2.149 22.734,-1.837 6.032,-3.643 12.78,-6.78 19.397,-2.141 2.617,1.826 4.529,4.525 5.241,7.621 C 4.779,-7.953 3.115,-3.074 0,0"
             style="fill:#66ccca;fill-opacity:1;fill-rule:nonzero;stroke:none"
             id="path262" /></g><g
           id="g264"
           transform="translate(303.3066,284.5255)"><path
             d="m 0,0 c -7.126,-5.762 -15.238,-5.689 -22.568,-3.266 -6.688,2.209 -13.971,3.76 -19.394,-2.226 -2.138,-2.371 -3.398,-5.424 -3.402,-8.612 -0.013,-4.316 2.689,-8.707 6.418,-11.011 8.573,-5.317 23.842,-3.102 33.362,11.502 3.615,5.547 5.562,9.488 6.814,12.853 C 1.573,0.152 0.792,0.635 0,0"
             style="fill:#66ccca;fill-opacity:1;fill-rule:nonzero;stroke:none"
             id="path266" /></g><g
           id="g268"
           transform="translate(535.1172,592.0958)"><path
             d="m 0,0 c -8.577,5.324 -23.841,3.104 -33.366,-11.5 -3.615,-5.549 -5.563,-9.488 -6.815,-12.85 -0.334,-0.916 0.436,-1.4 1.236,-0.759 7.12,5.752 15.243,5.677 22.568,3.261 6.692,-2.209 13.97,-3.761 19.389,2.231 2.141,2.367 3.406,5.424 3.41,8.599 C 6.431,-6.693 3.72,-2.305 0,0"
             style="fill:#66ccca;fill-opacity:1;fill-rule:nonzero;stroke:none"
             id="path270" /></g><g
           id="g272"
           transform="translate(337.1592,266.6056)"><path
             d="m 0,0 c -5.666,-7.201 -13.591,-8.938 -21.278,-8.207 -7.013,0.664 -14.456,0.557 -18.41,-6.486 -1.556,-2.793 -2.103,-6.043 -1.398,-9.151 0.946,-4.217 4.561,-7.892 8.706,-9.308 9.542,-3.284 23.933,2.281 29.964,18.632 2.295,6.217 3.312,10.495 3.785,14.047 C 1.5,0.494 0.631,0.799 0,0"
             style="fill:#66ccca;fill-opacity:1;fill-rule:nonzero;stroke:none"
             id="path274" /></g><g
           id="g276"
           transform="translate(503.415,608.7404)"><path
             d="m 0,0 c -0.956,4.221 -4.576,7.896 -8.717,9.314 -9.547,3.282 -23.933,-2.283 -29.969,-18.64 -2.289,-6.211 -3.31,-10.488 -3.785,-14.047 -0.121,-0.961 0.741,-1.264 1.373,-0.461 5.662,7.195 13.596,8.932 21.28,8.201 7.013,-0.662 14.451,-0.556 18.401,6.492 C 0.146,-6.357 0.699,-3.098 0,0"
             style="fill:#66ccca;fill-opacity:1;fill-rule:nonzero;stroke:none"
             id="path278" /></g><g
           id="g280"
           transform="translate(375.5889,256.5157)"><path
             d="m 0,0 c -0.087,0.973 -1.005,1.068 -1.439,0.152 -3.923,-8.279 -11.262,-11.736 -18.919,-12.738 -6.983,-0.91 -14.217,-2.67 -16.502,-10.42 -0.895,-3.07 -0.704,-6.357 0.669,-9.23 1.863,-3.901 6.204,-6.678 10.564,-7.139 10.031,-1.074 22.824,7.549 25.066,24.834 C 0.291,-7.971 0.33,-3.568 0,0"
             style="fill:#66ccca;fill-opacity:1;fill-rule:nonzero;stroke:none"
             id="path282" /></g><g
           id="g284"
           transform="translate(460.085,627.2286)"><path
             d="m 0,0 c -1.869,3.9 -6.219,6.678 -10.566,7.139 -10.039,1.072 -22.831,-7.555 -25.074,-24.84 -0.851,-6.57 -0.895,-10.967 -0.56,-14.541 0.097,-0.967 1,-1.069 1.439,-0.147 3.923,8.274 11.267,11.737 18.919,12.737 6.987,0.916 14.217,2.67 16.498,10.422 C 1.564,-6.168 1.373,-2.867 0,0"
             style="fill:#66ccca;fill-opacity:1;fill-rule:nonzero;stroke:none"
             id="path286" /></g></g></g></g></svg>
