<?xml version="1.0" encoding="UTF-8" standalone="no"?>
<svg
   xmlns:dc="http://purl.org/dc/elements/1.1/"
   xmlns:cc="http://creativecommons.org/ns#"
   xmlns:rdf="http://www.w3.org/1999/02/22-rdf-syntax-ns#"
   xmlns:svg="http://www.w3.org/2000/svg"
   xmlns="http://www.w3.org/2000/svg"
   xmlns:sodipodi="http://sodipodi.sourceforge.net/DTD/sodipodi-0.dtd"
   xmlns:inkscape="http://www.inkscape.org/namespaces/inkscape"
   version="1.1"
   id="svg2"
   xml:space="preserve"
   width="181.21947"
   height="43.905067"
   viewBox="0 0 181.21947 43.905067"
   sodipodi:docname="Lokki.svg"
   inkscape:version="1.0.2-2 (e86c870879, 2021-01-15)"><metadata
     id="metadata8"><rdf:RDF><cc:Work
         rdf:about=""><dc:format>image/svg+xml</dc:format><dc:type
           rdf:resource="http://purl.org/dc/dcmitype/StillImage" /><dc:title></dc:title></cc:Work></rdf:RDF></metadata><defs
     id="defs6" /><sodipodi:namedview
     pagecolor="#ffffff"
     bordercolor="#666666"
     borderopacity="1"
     objecttolerance="10"
     gridtolerance="10"
     guidetolerance="10"
     inkscape:pageopacity="0"
     inkscape:pageshadow="2"
     inkscape:window-width="2560"
     inkscape:window-height="1377"
     id="namedview4"
     showgrid="false"
     inkscape:zoom="5.777525"
     inkscape:cx="90.609734"
     inkscape:cy="21.952534"
     inkscape:window-x="1072"
     inkscape:window-y="43"
     inkscape:window-maximized="1"
     inkscape:current-layer="g10" /><g
     id="g10"
     inkscape:groupmode="layer"
     inkscape:label="Lokki"
     transform="matrix(1.3333333,0,0,-1.3333333,1.3333333,42.571733)"><path
       d="m 64.0301,26.9186 c 7.096,0 12.8483,-5.7523 12.8483,-12.8486 0,-7.0959 -5.7523,-12.8483 -12.8483,-12.8483 -7.096,0 -12.8483,5.7524 -12.8483,12.8483 0,7.0963 5.7523,12.8486 12.8483,12.8486 z m 0,-6.1469 c 3.7012,0 6.7017,-3.0005 6.7017,-6.7017 0,-3.7009 -3.0005,-6.7013 -6.7017,-6.7013 -3.7012,0 -6.7014,3.0004 -6.7014,6.7013 0,3.7012 3.0002,6.7017 6.7014,6.7017"
       style="fill:#ee2722;fill-opacity:1;fill-rule:evenodd;stroke:none"
       id="path12" /><path
       d="M 9.1913,30.9288 H 0 V 0.0062 L 31.1477,0 V 9.0777 H 9.1913 Z"
       style="fill:#7b7979;fill-opacity:1;fill-rule:evenodd;stroke:none"
       id="path14" /><path
       d="m 110.8749,17.7197 v 9.1516 l -5.9712,0.0062 0.003,-24.5539 h 5.9681 l 0.006,6.3776 3.094,3.5572 4.1803,-9.9348 7.4778,-3e-4 -7.2717,15.0341 6.9678,9.517 -7.9466,0.0031 -6.5078,-9.1578 z"
       style="fill:#ee2722;fill-opacity:1;fill-rule:evenodd;stroke:none"
       id="path16" /><path
       d="m 87.9673,17.7197 v 9.1516 l -5.9712,0.0062 0.0028,-24.5539 h 5.9684 l 0.0062,6.3776 3.094,3.5572 4.1803,-9.9348 7.4778,-3e-4 -7.2717,15.0341 6.9678,9.517 -7.9469,0.0031 z"
       style="fill:#ee2722;fill-opacity:1;fill-rule:evenodd;stroke:none"
       id="path18" /><path
       d="m 35.8183,2.323 15.6257,6e-4 -0.0045,6.0791 H 41.9216 V 26.8775 H 35.816 Z"
       style="fill:#ee2722;fill-opacity:1;fill-rule:evenodd;stroke:none"
       id="path20" /><path
       d="m 128.0914,2.3219 5.8232,0.0017 -0.002,24.5539 h -5.8207 V 2.3219 Z"
       style="fill:#ee2722;fill-opacity:1;fill-rule:evenodd;stroke:none"
       id="path22" /><path
       d="m 13.4328,13.1689 h 17.7149 v 4.5649 l -13.0162,0.0048 v 13.1902 h -4.697 z"
       style="fill:#7b7979;fill-opacity:1;fill-rule:evenodd;stroke:none"
       id="path24" /><path
       d="m 22.3089,30.9288 h 8.8388 v -8.839 h -8.8388 z"
       style="fill:#ee2722;fill-opacity:1;fill-rule:evenodd;stroke:none"
       id="path26" /></g></svg>
