<?xml version="1.0" encoding="UTF-8"?>
<svg width="682.67" height="314.73" version="1.1" viewBox="0 0 682.67 314.73" xml:space="preserve" xmlns="http://www.w3.org/2000/svg" xmlns:cc="http://creativecommons.org/ns#" xmlns:dc="http://purl.org/dc/elements/1.1/" xmlns:rdf="http://www.w3.org/1999/02/22-rdf-syntax-ns#"><metadata><rdf:RDF><cc:Work rdf:about=""><dc:format>image/svg+xml</dc:format><dc:type rdf:resource="http://purl.org/dc/dcmitype/StillImage"/><dc:title/></cc:Work></rdf:RDF></metadata><defs><clipPath id="clipPath18"><path d="m0 0.143h512v511.86h-512z"/></clipPath><radialGradient id="radialGradient32" cx="0" cy="0" r="1" fx=".70711" fy="-.70711" gradientTransform="matrix(256 0 0 -256 329.14 333.29)" gradientUnits="userSpaceOnUse"><stop stop-color="#55393f" offset="0"/><stop stop-color="#55393f" offset=".37847"/><stop stop-color="#63554a" offset=".97356"/><stop stop-color="#63554a" offset="1"/></radialGradient><clipPath id="clipPath42"><path d="m0 512h512v-512h-512z"/></clipPath></defs><g transform="matrix(1.3333 0 0 -1.3333 -1.8706e-5 480.72)"><g transform="matrix(1 0 0 .46116 1.4029e-5 124.43)"><g clip-path="url(#clipPath18)"><path d="m0 0.143h512v511.86h-512z" fill="url(#radialGradient32)"/></g></g><g clip-path="url(#clipPath42)"><path d="m512 0.143h-512v512h512z" fill="none" stroke="#231f20" stroke-miterlimit="10"/></g><g fill="#231f20" font-family="Playfair Display" font-size="39px" font-style="italic"><text transform="matrix(.92608 .37733 .37733 -.92608 65.888 239.62)"><tspan x="0" y="0">1</tspan></text><text transform="matrix(.94778 .31891 .31891 -.94778 77.258 244.37)"><tspan x="0" y="0">5</tspan></text><text transform="matrix(.96796 .25111 .25111 -.96796 93.809 249.88)"><tspan x="0" y="0">1</tspan></text><text transform="matrix(.98038 .19711 .19711 -.98038 106.37 253.09)"><tspan x="0" y="0">.</tspan></text><text transform="matrix(.99859 .053149 .053149 -.99859 124.47 256.71)"><tspan x="0" y="0">T</tspan></text><text transform="matrix(.99917 -.040764 -.040764 -.99917 144.85 257.83)"><tspan x="0" y="0">e</tspan></text><text transform="matrix(.99093 -.13437 -.13437 -.99093 160.97 257.17)"><tspan x="0" y="0">e</tspan></text><text transform="matrix(.96881 -.24781 -.24781 -.96881 176.82 255.14)"><tspan x="0" y="0">k</tspan></text><text transform="matrix(.93114 -.36467 -.36467 -.93114 195.54 250.39)"><tspan x="0" y="0">k</tspan></text><text transform="matrix(.88786 -.46011 -.46011 -.88786 213.61 243.29)"><tspan x="0" y="0">a</tspan></text><text transform="matrix(.86479 -.50213 -.50213 -.86479 231.36 233.91)"><tspan x="0" y="0">r</tspan></text><text transform="matrix(.88322 -.46896 -.46896 -.88322 246.21 225.19)"><tspan x="0" y="0">i</tspan></text><text transform="matrix(.94395 -.33008 -.33008 -.94395 258.83 218.29)"><tspan x="0" y="0">p</tspan></text><text transform="matrix(.98424 -.17684 -.17684 -.98424 281.8 210.73)"><tspan x="0" y="0">e</tspan></text><text transform="matrix(.99815 -.060779 -.060779 -.99815 300.24 207.57)"><tspan x="0" y="0">r</tspan></text><text transform="matrix(.99973 .023138 .023138 -.99973 318.24 206.65)"><tspan x="0" y="0">i</tspan></text><text transform="matrix(.99414 .10814 .10814 -.99414 331.45 206.81)"><tspan x="0" y="0">n</tspan></text><text transform="matrix(.98033 .19735 .19735 -.98033 355.44 209.53)"><tspan x="0" y="0">n</tspan></text><text transform="matrix(.96592 .25884 .25884 -.96592 378.63 214.35)"><tspan x="0" y="0">e</tspan></text><text transform="matrix(.95551 .29494 .29494 -.95551 395.37 218.91)"><tspan x="0" y="0">j</tspan></text><text transform="matrix(.94318 .33228 .33228 -.94318 406.3 222.18)"><tspan x="0" y="0">u</tspan></text><text transform="matrix(.92763 .37351 .37351 -.92763 427.85 229.82)"><tspan x="0" y="0">h</tspan></text><text transform="matrix(.91676 .39945 .39945 -.91676 447.64 237.88)"><tspan x="0" y="0">l</tspan></text><text transform="matrix(.90672 .42173 .42173 -.90672 457.76 242.23)"><tspan x="0" y="0">a</tspan></text><text transform="matrix(.99992 .012531 .012531 -.99992 118.63 197.67)"><tspan x="0 13.337987 34.553967 44.069958 57.407944 70.745934" y="0">18.11.</tspan></text></g></g></svg>
